<?xml version="1.0" encoding="utf-8"?>
<!-- Generator: Adobe Illustrator 22.1.0, SVG Export Plug-In . SVG Version: 6.00 Build 0)  -->
<svg version="1.1" id="Layer_1" xmlns="http://www.w3.org/2000/svg" xmlns:xlink="http://www.w3.org/1999/xlink" x="0px" y="0px"
	 viewBox="0 0 400 400" style="enable-background:new 0 0 400 400;" xml:space="preserve">
<style type="text/css">
	.st0{fill:#21325E;}
	.st1{fill:#FFFFFF;}
</style>
<g id="Dark_Blue">
	<circle class="st0" cx="200" cy="200" r="200"/>
</g>
<path class="st1" d="M180.8,242.3l-22.5,22.5c-8.6,8.6-22.5,8.6-31.1,0c-8.6-8.6-8.6-22.5,0-31.1l45.5-45.5
	c4.2-4.2,9.7-6.4,15.6-6.4c8.4,0,16.3,4.9,19.9,12.6c1.4-0.4,2.7-1.1,3.7-2.1l15.8-15.8c-1.6-2.3-3.5-4.5-5.4-6.5
	c-9-9-21.1-14-33.8-14c-12.8,0-24.8,5-33.8,14l-45.5,45.5c-18.7,18.7-18.7,49,0,67.7h0c18.7,18.7,49,18.7,67.7,0l35.8-35.8
	c-2.2,0.2-4.4,0.4-6.6,0.4C197.1,247.6,188.8,245.9,180.8,242.3z M213.2,147.7l22.5-22.5c8.6-8.6,22.5-8.6,31.1,0
	c8.6,8.6,8.6,22.5,0,31.1l-45.5,45.5c-4.2,4.2-9.7,6.4-15.6,6.4c-8.4,0-16.3-4.9-19.9-12.6c-1.4,0.4-2.6,1.1-3.7,2.1l-15.8,15.8
	c9,13,23.7,20.5,39.3,20.5c12.8,0,24.8-5,33.8-14l45.5-45.5c18.7-18.7,18.7-49,0-67.7c-18.7-18.7-49-18.7-67.7,0l-35.8,35.8
	c2.2-0.2,4.4-0.4,6.6-0.4C196.9,142.4,205.2,144.2,213.2,147.7z"/>
</svg>
